Saadi Love Story 2013 Hindi Punjabi Movies New Source DvDScr Sample Included ~ rDX

Screen Shots :
 
http://myimghosting.serveftp.com/SaadiLovStoryDVD.html
 
http://myimghost.cwahi.net/SaadiLovStoryDVD.html


Format                                   : Matroska
Format version                           : Version 2
File size                                : 715 MiB
Duration                                 : 1h 44mn
Overall bit rate                         : 953 Kbps
Movie name                               : Saadi Love Story 2013 DVDScr Hindi
Encoded date                             : UTC 2013-01-22 15:50:29
Writing library                          : libebml v1.2.3 + libmatroska v1.3.0

Video
ID                                       : 1
Format                                   : MPEG-4 Visual
Format profile                           : Advanced Simple@L5
Format settings, BVOP                    : Yes
Format settings, QPel                    : Yes
Format settings, GMC                     : No warppoints
Format settings, Matrix                  : Default (H.263)
Codec ID                                 : V_MS/VFW/FOURCC / XVID
Codec ID/Hint                            : XviD
Duration                                 : 1h 44mn
Bit rate                                 : 806 Kbps
Width                                    : 640 pixels
Height                                   : 272 pixels
Display aspect ratio                     : 2.35:1
Frame rate mode                          : Constant
Frame rate                               : 23.976 fps
Color space                              : YUV
Chroma subsampling                       : 4:2:0
Bit depth                                : 8 bits
Scan type                                : Progressive
Compression mode                         : Lossy
Bits/(Pixel*Frame)                       : 0.193
Stream size                              : 605 MiB (85%)
Title                                    : Saadi Love Story 2013 DVDScr Hindi
Writing library                          : XviD 1.2.1 (UTC 2008-12-04)
Language                                 : Hindi
Default                                  : Yes
Forced                                   : No

Audio
ID                                       : 2
Format                                   : MPEG Audio
Format version                           : Version 1
Format profile                           : Layer 2
Muxing mode                              : Header stripping
Codec ID                                 : A_MPEG/L2
Codec ID/Hint                            : MP2
Duration                                 : 1h 44mn
Bit rate mode                            : Constant
Bit rate                                 : 128 Kbps
Channel(s)                               : 2 channels
Sampling rate                            : 48.0 KHz
Compression mode                         : Lossy
Stream size                              : 96.0 MiB (13%)
Title                                    : Saadi Love Story 2013 DVDScr Hindi
Language                                 : Hindi
Default                                  : Yes
Forced                                   : No